<?xml version="1.0" encoding="utf-8"?>
<!-- Generator: Adobe Illustrator 23.0.1, SVG Export Plug-In . SVG Version: 6.00 Build 0)  -->
<svg version="1.1" id="圖層_1" xmlns="http://www.w3.org/2000/svg" xmlns:xlink="http://www.w3.org/1999/xlink" x="0px" y="0px"
	 viewBox="0 0 40 40" style="enable-background:new 0 0 40 40;" xml:space="preserve">
<style type="text/css">
	.st0{fill:#FFFFFF;}
	.st1{display:none;}
	.st2{display:inline;}
	.st3{fill:#504F4F;}
</style>
<g>
	<g>
		<g>
			<path class="st0" d="M30.6,21.5c-0.2,0-0.5-0.1-0.7-0.3l-10-10l-10,10c-0.4,0.4-1,0.4-1.3,0c-0.4-0.4-0.4-1,0-1.3L19.2,9.2
				c0.4-0.4,1-0.4,1.3,0l10.7,10.7c0.4,0.4,0.4,1,0,1.3C31.1,21.4,30.9,21.5,30.6,21.5z"/>
			<path class="st0" d="M19.9,31.4c-0.5,0-1-0.4-1-1V11c0-0.5,0.4-1,1-1s1,0.4,1,1v19.4C20.9,30.9,20.4,31.4,19.9,31.4z"/>
		</g>
	</g>
</g>
<g class="st1">
	<g class="st2">
		<g>
			<path class="st3" d="M7.4,33.3c-0.5,0-1.7-0.1-2.5-0.9c-0.4-0.4-0.8-1.1-0.7-2.3C4.4,29,4.9,28,5.9,27.3c0.8-0.6,2.2-2,2.4-3.7
				c0-0.4,0.1-0.9,0.1-1.5C8.6,17.8,9,9.3,16.5,7.5c-0.1-0.3-0.1-0.6-0.1-0.9c0-1.8,1.5-3.3,3.3-3.3S23,4.8,23,6.6
				c0,0.3,0,0.6-0.1,0.9C30.6,9.2,31,17.8,31.2,22c0,0.6,0.1,1.1,0.1,1.5c0.2,1.8,1.6,3.1,2.4,3.7c0.9,0.7,1.5,1.8,1.6,2.9l0,0
				c0.1,1.2-0.3,1.9-0.7,2.3c-1,1-2.6,0.9-2.8,0.9H7.6C7.7,33.3,7.6,33.3,7.4,33.3z M19.8,5.3c-0.7,0-1.3,0.6-1.3,1.3
				c0,0.2,0,0.3,0.1,0.5c0.1,0.3,0.2,0.8,0.1,1.4l-0.1,0.7l-0.7,0.1c-6.9,1-7.2,8.7-7.4,12.8c0,0.7-0.1,1.2-0.1,1.7
				c-0.4,2.4-2.2,4.2-3.3,5c-0.5,0.4-0.8,1-0.9,1.5c0,0.5,0.1,0.6,0.1,0.7c0.3,0.3,0.9,0.3,1.2,0.3h24.3c0.4,0,1,0,1.3-0.3
				c0,0,0.2-0.2,0.1-0.7c-0.1-0.6-0.4-1.1-0.9-1.5c-1-0.8-2.9-2.6-3.1-5.1c0-0.4-0.1-1-0.1-1.7c-0.2-4.1-0.6-11.7-7.4-12.8h-0.8
				l-0.2-0.9c-0.1-0.6,0-1.1,0.1-1.3V6.9c0-0.1,0.1-0.2,0.1-0.4C21.1,5.9,20.5,5.3,19.8,5.3z"/>
			<g>
				<path class="st3" d="M19.8,37.1c2,0,3.6-1.5,3.9-3.4h-7.9C16.2,35.7,17.8,37.1,19.8,37.1z"/>
			</g>
		</g>
		<path class="st3" d="M16.7,9.5c0,0,2.1-0.7,6,0c-0.4-0.6-0.7-2-0.7-2s0.2-2.1-0.9-2.5c-1-0.4-1.3-0.7-1.3-0.7s-2.3,0.9-2.3,1.5
			s0.2,2.6,0.2,2.6L16.7,9.5z"/>
	</g>
</g>
</svg>
